<svg viewBox="0 0 12 12" width="60px" height="60px" xmlns="http://www.w3.org/2000/svg"><path fill-rule="evenodd" d="M 4,2 7,2 7,6 10,6 10,9 9,9 9,11 6,11 6,10 5,10 5,11 2,11 2,9 1,9 1,6 4,6z" fill="#EB6847"/><path fill-rule="evenodd" d="M 5,3 6,3 6,4 5,4z" fill="#ffffff"/><path fill-rule="evenodd" d="M 5,5 6,5 6,7 5,7z" fill="#ffffff"/><path fill-rule="evenodd" d="M 2,7 4,7 4,8 2,8z" fill="#ffffff"/><path fill-rule="evenodd" d="M 7,7 9,7 9,8 7,8z" fill="#ffffff"/><path fill-rule="evenodd" d="M 4,8 5,8 5,9 4,9z" fill="#ffffff"/><path fill-rule="evenodd" d="M 6,8 7,8 7,9 6,9z" fill="#ffffff"/><path fill-rule="evenodd" d="M 3,9 4,9 4,10 3,10z" fill="#ffffff"/><path fill-rule="evenodd" d="M 7,9 8,9 8,10 7,10z" fill="#ffffff"/></svg>